<svg width="40" height="40" viewBox="0 0 40 40" fill="none" xmlns="http://www.w3.org/2000/svg">
<rect x="0.488281" width="38.72" height="40" rx="4" fill="#F5F5F5"/>
<path fill-rule="evenodd" clip-rule="evenodd" d="M11.6766 20.4421L17.4845 26.4419C17.7207 26.686 18.1038 26.686 18.3401 26.4419C18.5763 26.1979 18.5763 25.8021 18.3401 25.5581L13.5649 20.625H27.5923C27.9264 20.625 28.1973 20.3452 28.1973 20C28.1973 19.6548 27.9264 19.375 27.5923 19.375H13.5649L18.3401 14.4419C18.5763 14.1979 18.5763 13.8021 18.3401 13.5581C18.1038 13.314 17.7207 13.314 17.4845 13.5581L11.6766 19.5579C11.6766 19.5579 11.6765 19.558 11.6765 19.5581C11.6185 19.618 11.5747 19.687 11.5452 19.7608C11.5156 19.8345 11.4993 19.9153 11.4993 20C11.4993 20.0847 11.5156 20.1655 11.5452 20.2392C11.5747 20.313 11.6185 20.382 11.6765 20.4419C11.6765 20.442 11.6766 20.4421 11.6766 20.4421Z" fill="#E01E69"/>
</svg>
